<svg width="512" height="512" viewBox="0 0 512 512" xmlns="http://www.w3.org/2000/svg">
  <!-- Фон -->
  <rect width="512" height="512" rx="76.8" fill="#191E22"/>
  
  <!-- Круг -->
  <circle cx="256" cy="256" r="200" fill="none" stroke="white" stroke-width="8"/>
  
  <!-- Текст RADAR -->
  <text x="256" y="180" font-family="Arial, sans-serif" font-size="48" font-weight="bold" text-anchor="middle" fill="white">RADAR</text>
  
  <!-- Горы -->
  <g transform="translate(256, 320)" fill="none" stroke="white" stroke-width="4">
    <!-- Левая гора -->
    <path d="M-120,-40 L-80,20 L-160,20 Z" fill="white" stroke="white" stroke-width="2"/>
    <path d="M-140,-10 L-120,15 M-130,-5 L-110,15 M-120,0 L-100,15" stroke="#191E22" stroke-width="2"/>
    
    <!-- Центральная большая гора -->
    <path d="M-40,-60 L20,20 L-100,20 Z" fill="white" stroke="white" stroke-width="2"/>
    <path d="M-80,-20 L-60,15 M-70,-15 L-50,15 M-60,-10 L-40,15 M-50,-5 L-30,15 M-40,0 L-20,15 M-30,5 L-10,15" stroke="#191E22" stroke-width="2"/>
    
    <!-- Правая гора -->
    <path d="M40,-45 L100,20 L-20,20 Z" fill="white" stroke="white" stroke-width="2"/>
    <path d="M-10,-15 L10,15 M0,-10 L20,15 M10,-5 L30,15 M20,0 L40,15 M30,5 L50,15" stroke="#191E22" stroke-width="2"/>
    
    <!-- Дальняя правая гора -->
    <path d="M120,-25 L160,20 L80,20 Z" fill="white" stroke="white" stroke-width="2"/>
    <path d="M90,-5 L110,15 M100,0 L120,15 M110,5 L130,15" stroke="#191E22" stroke-width="2"/>
  </g>
</svg> 